<svg aria-hidden="true" style="position: absolute; width: 0; height: 0; overflow: hidden;" version="1.1" xmlns="http://www.w3.org/2000/svg" xmlns:xlink="http://www.w3.org/1999/xlink">
<defs>
<symbol id="icon-stars" viewBox="0 0 200 32">
<path fill="#ffe550" style="fill: var(--color1, #ffe550)" d="M15.639 1.037c0.593-1.383 2.611-1.383 3.204 0l3.498 8.164c0.25 0.583 0.815 0.982 1.463 1.032l9.079 0.707c1.538 0.12 2.162 1.983 0.99 2.958l-6.917 5.752c-0.494 0.411-0.71 1.056-0.559 1.67l2.113 8.6c0.358 1.457-1.275 2.609-2.592 1.828l-7.773-4.609c-0.555-0.329-1.253-0.329-1.809 0l-7.773 4.609c-1.317 0.781-2.95-0.371-2.592-1.828l2.113-8.6c0.151-0.614-0.065-1.259-0.559-1.67l-6.918-5.752c-1.172-0.975-0.548-2.838 0.99-2.958l9.079-0.707c0.649-0.050 1.213-0.449 1.463-1.032l3.498-8.164z"></path>
<path fill="#ffe550" style="fill: var(--color1, #ffe550)" d="M57.018 1.037c0.593-1.383 2.611-1.383 3.204 0l3.498 8.164c0.25 0.583 0.815 0.982 1.463 1.032l9.079 0.707c1.538 0.12 2.162 1.983 0.99 2.958l-6.918 5.752c-0.494 0.411-0.71 1.056-0.559 1.67l2.113 8.6c0.358 1.457-1.275 2.609-2.592 1.828l-7.773-4.609c-0.555-0.329-1.253-0.329-1.809 0l-7.773 4.609c-1.317 0.781-2.95-0.371-2.592-1.828l2.113-8.6c0.151-0.614-0.065-1.259-0.559-1.67l-6.918-5.752c-1.172-0.975-0.548-2.838 0.99-2.958l9.080-0.707c0.648-0.050 1.213-0.449 1.463-1.032l3.498-8.164z"></path>
<path fill="#ffe550" style="fill: var(--color1, #ffe550)" d="M98.397 1.037c0.593-1.383 2.611-1.383 3.204 0l3.498 8.164c0.25 0.583 0.815 0.982 1.463 1.032l9.079 0.707c1.538 0.12 2.162 1.983 0.99 2.958l-6.917 5.752c-0.494 0.411-0.71 1.056-0.559 1.67l2.113 8.6c0.358 1.457-1.275 2.609-2.592 1.828l-7.773-4.609c-0.555-0.329-1.254-0.329-1.809 0l-7.773 4.609c-1.317 0.781-2.95-0.371-2.592-1.828l2.113-8.6c0.151-0.614-0.065-1.259-0.559-1.67l-6.918-5.752c-1.172-0.975-0.548-2.838 0.99-2.958l9.079-0.707c0.649-0.050 1.213-0.449 1.463-1.032l3.498-8.164z"></path>
<path fill="#ffe550" style="fill: var(--color1, #ffe550)" d="M139.778 1.037c0.593-1.383 2.611-1.383 3.204 0l3.498 8.164c0.25 0.583 0.815 0.982 1.463 1.032l9.079 0.707c1.538 0.12 2.162 1.983 0.99 2.958l-6.917 5.752c-0.494 0.411-0.71 1.056-0.559 1.67l2.113 8.6c0.358 1.457-1.275 2.609-2.592 1.828l-7.773-4.609c-0.555-0.329-1.253-0.329-1.809 0l-7.773 4.609c-1.317 0.781-2.95-0.371-2.592-1.828l2.113-8.6c0.151-0.614-0.065-1.259-0.559-1.67l-6.918-5.752c-1.172-0.975-0.548-2.838 0.99-2.958l9.079-0.707c0.649-0.050 1.214-0.449 1.463-1.032l3.498-8.164z"></path>
<path fill="#ffe550" style="fill: var(--color1, #ffe550)" d="M181.157 1.037c0.593-1.383 2.611-1.383 3.204 0l3.498 8.164c0.25 0.583 0.815 0.982 1.463 1.032l9.079 0.707c1.538 0.12 2.162 1.983 0.99 2.958l-6.917 5.752c-0.494 0.411-0.71 1.056-0.559 1.67l2.113 8.6c0.358 1.457-1.275 2.609-2.592 1.828l-7.773-4.609c-0.555-0.329-1.254-0.329-1.809 0l-7.773 4.609c-1.317 0.781-2.95-0.371-2.592-1.828l2.113-8.6c0.151-0.614-0.065-1.259-0.559-1.67l-6.917-5.752c-1.172-0.975-0.548-2.838 0.99-2.958l9.079-0.707c0.649-0.050 1.213-0.449 1.463-1.032l3.498-8.164z"></path>
</symbol>
</defs>
</svg>
